<svg xmlns="http://www.w3.org/2000/svg" xmlns:xlink="http://www.w3.org/1999/xlink" width="666" zoomAndPan="magnify" viewBox="0 0 499.5 242.999999" height="324" preserveAspectRatio="xMidYMid meet" version="1.0"><defs><g/><clipPath id="9288b2f344"><path d="M 67.878906 24.769531 L 430.515625 24.769531 L 430.515625 242.050781 L 67.878906 242.050781 Z M 67.878906 24.769531 " clip-rule="nonzero"/></clipPath><clipPath id="27a0bdbe79"><rect x="0" width="162" y="0" height="113"/></clipPath></defs><g clip-path="url(#9288b2f344)"><path fill="#4f39f6" d="M 384.519531 114.214844 L 249.894531 166.007812 C 192.039062 143.511719 133.355469 122.480469 75.867188 99.15625 C 72.101562 97.59375 65.765625 96.765625 68.613281 91.441406 L 247.964844 24.769531 L 250.71875 24.769531 C 250.71875 24.769531 430.253906 91.53125 430.253906 91.53125 C 431.171875 92.726562 431.082031 96.125 429.425781 96.765625 L 394.53125 110.175781 L 393.429688 111.550781 L 393.429688 165.183594 C 403.070312 169.132812 403.164062 181.347656 394.53125 186.671875 C 397.5625 193.558594 399.855469 200.816406 401.234375 208.253906 C 402.519531 215.140625 404.082031 225.058594 404.355469 232.039062 C 404.539062 235.253906 402.980469 236.8125 400.59375 238.742188 C 394.164062 243.882812 384.980469 243.976562 378.277344 239.199219 C 372.859375 235.253906 373.960938 232.128906 374.511719 226.160156 C 375.796875 213.121094 378.09375 199.253906 383.417969 187.316406 C 382.042969 185.109375 379.652344 183.824219 378.550781 181.347656 C 375.703125 175.285156 378.183594 168.121094 384.429688 165.734375 L 384.429688 114.492188 Z M 384.519531 114.214844 " fill-opacity="1" fill-rule="nonzero"/></g><path fill="#4f39f6" d="M 152.917969 138.644531 C 154.386719 138.183594 158.425781 140.113281 160.171875 140.664062 C 187.90625 150.488281 215.640625 163.714844 243.371094 172.898438 C 249.433594 174.917969 250.167969 174.734375 256.230469 172.804688 C 284.605469 163.347656 312.707031 149.203125 341.082031 139.746094 C 342.644531 139.195312 344.207031 138.367188 345.859375 138.644531 C 347.511719 139.195312 349.992188 151.59375 350.542969 153.886719 C 352.472656 162.796875 354.398438 173.265625 355.5 182.265625 C 355.777344 184.652344 356.328125 186.765625 355.042969 189.058594 C 353.574219 191.632812 343.195312 197.140625 339.980469 198.886719 C 320.789062 209.445312 298.289062 219.179688 277.351562 225.792969 C 265.78125 229.464844 254.300781 233.78125 242.085938 231.394531 C 214.628906 226.070312 174.957031 209.171875 150.898438 194.753906 C 145.753906 191.632812 143.273438 191.816406 143.550781 185.109375 C 144.007812 174.734375 147.40625 158.9375 149.792969 148.5625 C 150.160156 146.816406 151.539062 139.101562 152.917969 138.644531 Z M 152.917969 138.644531 " fill-opacity="1" fill-rule="nonzero"/><g transform="matrix(1, 0, 0, 1, 168, 33)"><g clip-path="url(#27a0bdbe79)"><g fill="#ffffff" fill-opacity="1"><g transform="translate(0.772946, 84.244624)"><g><path d="M 47.578125 -37.9375 C 47.578125 -34.695312 46.832031 -31.734375 45.34375 -29.046875 C 43.851562 -26.359375 41.566406 -24.191406 38.484375 -22.546875 C 35.410156 -20.898438 31.585938 -20.078125 27.015625 -20.078125 L 18.5625 -20.078125 L 18.5625 0 L 4.9375 0 L 4.9375 -55.9375 L 27.015625 -55.9375 C 31.472656 -55.9375 35.242188 -55.164062 38.328125 -53.625 C 41.410156 -52.082031 43.722656 -49.957031 45.265625 -47.25 C 46.804688 -44.539062 47.578125 -41.4375 47.578125 -37.9375 Z M 25.984375 -30.921875 C 28.585938 -30.921875 30.523438 -31.53125 31.796875 -32.75 C 33.066406 -33.96875 33.703125 -35.695312 33.703125 -37.9375 C 33.703125 -40.164062 33.066406 -41.890625 31.796875 -43.109375 C 30.523438 -44.328125 28.585938 -44.9375 25.984375 -44.9375 L 18.5625 -44.9375 L 18.5625 -30.921875 Z M 25.984375 -30.921875 "/></g></g></g><g fill="#ffffff" fill-opacity="1"><g transform="translate(49.77873, 84.244624)"><g><path d="M 2.625 -28.046875 C 2.625 -33.578125 3.816406 -38.503906 6.203125 -42.828125 C 8.597656 -47.160156 11.929688 -50.535156 16.203125 -52.953125 C 20.484375 -55.367188 25.335938 -56.578125 30.765625 -56.578125 C 37.398438 -56.578125 43.082031 -54.820312 47.8125 -51.3125 C 52.539062 -47.8125 55.703125 -43.03125 57.296875 -36.96875 L 42.3125 -36.96875 C 41.195312 -39.3125 39.613281 -41.09375 37.5625 -42.3125 C 35.519531 -43.53125 33.195312 -44.140625 30.59375 -44.140625 C 26.40625 -44.140625 23.007812 -42.675781 20.40625 -39.75 C 17.800781 -36.832031 16.5 -32.929688 16.5 -28.046875 C 16.5 -23.160156 17.800781 -19.253906 20.40625 -16.328125 C 23.007812 -13.410156 26.40625 -11.953125 30.59375 -11.953125 C 33.195312 -11.953125 35.519531 -12.5625 37.5625 -13.78125 C 39.613281 -15.007812 41.195312 -16.789062 42.3125 -19.125 L 57.296875 -19.125 C 55.703125 -13.070312 52.539062 -8.300781 47.8125 -4.8125 C 43.082031 -1.332031 37.398438 0.40625 30.765625 0.40625 C 25.335938 0.40625 20.484375 -0.800781 16.203125 -3.21875 C 11.929688 -5.644531 8.597656 -9.007812 6.203125 -13.3125 C 3.816406 -17.613281 2.625 -22.523438 2.625 -28.046875 Z M 2.625 -28.046875 "/></g></g></g><g fill="#ffffff" fill-opacity="1"><g transform="translate(109.780954, 84.244624)"><g><path d="M 33.46875 0 L 21.828125 -21.125 L 18.5625 -21.125 L 18.5625 0 L 4.9375 0 L 4.9375 -55.9375 L 27.8125 -55.9375 C 32.21875 -55.9375 35.972656 -55.164062 39.078125 -53.625 C 42.191406 -52.082031 44.519531 -49.96875 46.0625 -47.28125 C 47.601562 -44.601562 48.375 -41.617188 48.375 -38.328125 C 48.375 -34.609375 47.320312 -31.285156 45.21875 -28.359375 C 43.125 -25.441406 40.03125 -23.375 35.9375 -22.15625 L 48.84375 0 Z M 18.5625 -30.765625 L 27.015625 -30.765625 C 29.515625 -30.765625 31.382812 -31.375 32.625 -32.59375 C 33.875 -33.8125 34.5 -35.535156 34.5 -37.765625 C 34.5 -39.890625 33.875 -41.5625 32.625 -42.78125 C 31.382812 -44.007812 29.515625 -44.625 27.015625 -44.625 L 18.5625 -44.625 Z M 18.5625 -30.765625 "/></g></g></g></g></g></svg>